<svg width="1288" height="391" viewBox="0 0 1288 391" fill="none" xmlns="http://www.w3.org/2000/svg">
<rect width="1288" height="391" fill="#1E1E1E"/>
<rect id="Ship" y="6" width="99" height="320" fill="#D9D9D9"/>
<rect id="AFC" x="107" y="5" width="57" height="36" fill="#D9D9D9"/>
<rect id="DA 2" x="266" y="51" width="148" height="21" fill="#D9D9D9"/>
<rect id="Rectangle 17" x="266" y="72" width="148" height="21" fill="#D9D9D9"/>
<rect id="Rectangle 23" x="266" y="111" width="232" height="47" fill="#D9D9D9"/>
<rect id="Rectangle 26" x="266" y="166" width="373" height="37" fill="#D9D9D9"/>
<rect id="Rectangle 27" x="266" y="221" width="373" height="37" fill="#D9D9D9"/>
<rect id="Rectangle 28" x="266" y="278" width="373" height="48" fill="#D9D9D9"/>
<rect id="Rectangle 18" x="419" y="53" width="100" height="19" fill="#D9D9D9"/>
<rect id="Rectangle 19" x="419" y="74" width="100" height="19" fill="#D9D9D9"/>
<rect id="Rectangle 20" x="524" y="74" width="48" height="19" fill="#D9D9D9"/>
<rect id="Rectangle 22" x="572" y="53" width="67" height="40" fill="#D9D9D9"/>
<path id="Rectangle 21" d="M524 52H572V71H524V52Z" fill="#D9D9D9"/>
<rect id="AFC2" x="266" y="6" width="373" height="39" fill="#D9D9D9"/>
<rect id="AFC EOL" x="164" y="5" width="90" height="46" fill="#D9D9D9"/>
<rect id="Rectangle 4" x="107" y="111" width="57" height="47" fill="#D9D9D9"/>
<rect id="EOL XDM-XDU Under constr" x="164" y="111" width="90" height="47" fill="#D9D9D9"/>
<rect id="Rectangle 5" x="107" y="166" width="51" height="37" fill="#D9D9D9"/>
<rect id="Rectangle 12" x="158" y="166" width="96" height="37" fill="#D9D9D9"/>
<rect id="Rectangle 7" x="107" y="278" width="51" height="48" fill="#D9D9D9"/>
<rect id="DH 400" x="158" y="278" width="96" height="48" fill="#D9D9D9"/>
<rect id="Rectangle 6" x="107" y="225" width="51" height="37" fill="#D9D9D9"/>
<rect id="SKID" x="158" y="224" width="96" height="37" fill="#D9D9D9"/>
<rect id="Rectangle 3" x="107" y="51" width="57" height="41" fill="#D9D9D9"/>
<rect id="Rectangle 24" x="503" y="111" width="60" height="47" fill="#D9D9D9"/>
<rect id="Rectangle 25" x="563" y="111" width="76" height="47" fill="#D9D9D9"/>
<rect id="DA" x="164" y="51" width="90" height="21" fill="#D9D9D9"/>
<rect id="XDM" x="164" y="72" width="90" height="21" fill="#D9D9D9"/>
<rect id="Rectangle 29" x="656" width="31" height="48" fill="#D9D9D9"/>
<rect id="Rectangle 30" x="687" y="6" width="62" height="39" fill="#D9D9D9"/>
<rect id="Rectangle 31" x="656" y="52" width="93" height="31" fill="#D9D9D9"/>
<rect id="Rectangle 34" x="660" y="122" width="89" height="28" fill="#D9D9D9"/>
<rect id="Rectangle 32" x="660" y="87" width="43" height="28" fill="#D9D9D9"/>
<rect id="Rectangle 33" x="706" y="87" width="43" height="28" fill="#D9D9D9"/>
<rect id="Rectangle 35" x="757" y="6" width="34" height="77" fill="#D9D9D9"/>
<rect id="Rectangle 36" x="757" y="87" width="34" height="63" fill="#D9D9D9"/>
<rect id="Rectangle 37" x="799" width="12" height="150" fill="#D9D9D9"/>
<rect id="Rectangle 38" x="1169" y="111" width="106" height="39" fill="#D9D9D9"/>
<rect id="Rectangle 39" x="660" y="166" width="161" height="26" fill="#D9D9D9"/>
<rect id="Rectangle 40" x="660" y="197" width="161" height="17" fill="#D9D9D9"/>
<rect id="Rectangle 41" x="660" y="221" width="251" height="57" fill="#D9D9D9"/>
<rect id="Rectangle 42" x="827" y="166" width="48" height="48" fill="#D9D9D9"/>
<rect id="Rectangle 43" x="884" y="166" width="27" height="48" fill="#D9D9D9"/>
<rect id="Rectangle 44" x="923" y="166" width="45" height="92" fill="#D9D9D9"/>
<rect id="Rectangle 45" x="973" y="166" width="35" height="92" fill="#D9D9D9"/>
<rect id="Rectangle 46" x="779" y="286" width="75" height="16" fill="#D9D9D9"/>
<rect id="Rectangle 47" x="660" y="286" width="78" height="16" fill="#D9D9D9"/>
<rect id="Rectangle 48" x="759" y="286" width="17" height="16" fill="#D9D9D9"/>
<rect id="Rectangle 49" x="741" y="286" width="16" height="16" fill="#D9D9D9"/>
<rect id="Rectangle 50" x="660" y="305" width="194" height="24" fill="#D9D9D9"/>
<rect id="Rectangle 51" x="859" y="286" width="24" height="43" fill="#D9D9D9"/>
<rect id="Rectangle 52" x="886" y="286" width="25" height="43" fill="#D9D9D9"/>
<rect id="Rectangle 53" x="923" y="260" width="85" height="20" fill="#D9D9D9"/>
<rect id="Rectangle 54" x="923" y="283" width="84" height="25" fill="#D9D9D9"/>
<rect id="Rectangle 55" x="923" y="310" width="84" height="19" fill="#D9D9D9"/>
<rect id="Rectangle 56" x="863" y="342" width="32" height="49" fill="#D9D9D9"/>
<rect id="Rectangle 57" x="895" y="342" width="183" height="49" fill="#D9D9D9"/>
<rect id="Rectangle 58" x="1023" y="166" width="52" height="52" fill="#D9D9D9"/>
<rect id="Rectangle 59" x="1023" y="221" width="52" height="23" fill="#D9D9D9"/>
<rect id="Rectangle 60" x="1023" y="253" width="114" height="27" fill="#D9D9D9"/>
<rect id="Piping" x="1078" y="166" width="115" height="78" fill="#D9D9D9"/>
<rect id="Rectangle 62" x="1197" y="166" width="52" height="78" fill="#D9D9D9"/>
<rect id="Rectangle 63" x="1146" y="253" width="101" height="27" fill="#D9D9D9"/>
<g id="Warehouse">
<g id="Group 1">
<rect id="Rectangle 65" x="863" width="306" height="152" fill="#D9D9D9"/>
<rect id="Rectangle 66" x="1169" width="106" height="111" fill="#D9D9D9"/>
</g>
<rect id="Rectangle 67" x="848" width="15" height="45" fill="#D9D9D9"/>
</g>
<g id="Fastenal">
<rect id="Rectangle 68" x="811" y="45" width="52" height="107" fill="#D9D9D9"/>
<rect id="Rectangle 69" x="811" width="37" height="45" fill="#D9D9D9"/>
</g>
<g id="Group 4">
<rect id="Rectangle 70" x="1023" y="283" width="224" height="54" fill="#D9D9D9"/>
<rect id="Rectangle 71" x="1143" y="337" width="98" height="30" fill="#D9D9D9"/>
</g>
<rect id="Rectangle 72" x="1258" y="166" width="30" height="114" fill="#D9D9D9"/>
</svg>
